<mxfile host="Electron" modified="2024-07-09T22:13:48.707Z" agent="Mozilla/5.0 (Windows NT 10.0; Win64; x64) AppleWebKit/537.36 (KHTML, like Gecko) draw.io/22.0.3 Chrome/114.0.5735.289 Electron/25.8.4 Safari/537.36" etag="Vtktdl8ZCevkcA1_y77h" version="22.0.3" type="device" pages="4">
  <diagram name="Overview" id="zMWjTGV_tEZGyWVr490X">
    <mxGraphModel dx="1050" dy="621" grid="1" gridSize="10" guides="1" tooltips="1" connect="1" arrows="1" fold="1" page="1" pageScale="1" pageWidth="827" pageHeight="1169" math="0" shadow="0">
      <root>
        <mxCell id="0" />
        <mxCell id="1" parent="0" />
        <mxCell id="KtCGmuJAADU12m0pKi4F-6" style="edgeStyle=orthogonalEdgeStyle;rounded=0;orthogonalLoop=1;jettySize=auto;html=1;" parent="1" target="-olaCRIU6BgIfdw6zFpe-19" edge="1">
          <mxGeometry relative="1" as="geometry">
            <mxPoint x="340" y="310" as="sourcePoint" />
          </mxGeometry>
        </mxCell>
        <mxCell id="oXBTXRu-85QWcGLC9xxQ-61" value="Apply best move" style="rounded=0;whiteSpace=wrap;html=1;" parent="1" vertex="1">
          <mxGeometry x="280" y="280" width="120" height="60" as="geometry" />
        </mxCell>
        <mxCell id="-olaCRIU6BgIfdw6zFpe-14" value="Record score values" style="rounded=0;whiteSpace=wrap;html=1;" parent="1" vertex="1">
          <mxGeometry x="130" y="575" width="120" height="60" as="geometry" />
        </mxCell>
        <mxCell id="KtCGmuJAADU12m0pKi4F-7" style="edgeStyle=orthogonalEdgeStyle;rounded=0;orthogonalLoop=1;jettySize=auto;html=1;" parent="1" source="-olaCRIU6BgIfdw6zFpe-19" target="-olaCRIU6BgIfdw6zFpe-23" edge="1">
          <mxGeometry relative="1" as="geometry" />
        </mxCell>
        <mxCell id="KtCGmuJAADU12m0pKi4F-8" value="Yes" style="edgeLabel;html=1;align=center;verticalAlign=middle;resizable=0;points=[];" parent="KtCGmuJAADU12m0pKi4F-7" vertex="1" connectable="0">
          <mxGeometry x="-0.5196" y="6" relative="1" as="geometry">
            <mxPoint x="-1" as="offset" />
          </mxGeometry>
        </mxCell>
        <mxCell id="KtCGmuJAADU12m0pKi4F-20" style="edgeStyle=orthogonalEdgeStyle;rounded=0;orthogonalLoop=1;jettySize=auto;html=1;" parent="1" source="-olaCRIU6BgIfdw6zFpe-19" target="KtCGmuJAADU12m0pKi4F-19" edge="1">
          <mxGeometry relative="1" as="geometry" />
        </mxCell>
        <mxCell id="KtCGmuJAADU12m0pKi4F-21" value="No" style="edgeLabel;html=1;align=center;verticalAlign=middle;resizable=0;points=[];" parent="KtCGmuJAADU12m0pKi4F-20" vertex="1" connectable="0">
          <mxGeometry x="-0.6294" y="-5" relative="1" as="geometry">
            <mxPoint as="offset" />
          </mxGeometry>
        </mxCell>
        <mxCell id="-olaCRIU6BgIfdw6zFpe-19" value="Lost game?" style="rhombus;whiteSpace=wrap;html=1;" parent="1" vertex="1">
          <mxGeometry x="300" y="380" width="80" height="80" as="geometry" />
        </mxCell>
        <mxCell id="-olaCRIU6BgIfdw6zFpe-23" value="Modify score values" style="rounded=0;whiteSpace=wrap;html=1;" parent="1" vertex="1">
          <mxGeometry x="280" y="505" width="120" height="60" as="geometry" />
        </mxCell>
        <mxCell id="KtCGmuJAADU12m0pKi4F-3" style="edgeStyle=orthogonalEdgeStyle;rounded=0;orthogonalLoop=1;jettySize=auto;html=1;" parent="1" source="nj_AjfZPVtCODCFT934x-1" target="oXBTXRu-85QWcGLC9xxQ-61" edge="1">
          <mxGeometry relative="1" as="geometry" />
        </mxCell>
        <mxCell id="nj_AjfZPVtCODCFT934x-1" value="Determine move" style="shape=process;whiteSpace=wrap;html=1;backgroundOutline=1;" parent="1" vertex="1">
          <mxGeometry x="280" y="200" width="120" height="60" as="geometry" />
        </mxCell>
        <mxCell id="KtCGmuJAADU12m0pKi4F-2" style="edgeStyle=orthogonalEdgeStyle;rounded=0;orthogonalLoop=1;jettySize=auto;html=1;" parent="1" source="KtCGmuJAADU12m0pKi4F-1" target="nj_AjfZPVtCODCFT934x-1" edge="1">
          <mxGeometry relative="1" as="geometry" />
        </mxCell>
        <mxCell id="KtCGmuJAADU12m0pKi4F-1" value="Get state" style="shape=process;whiteSpace=wrap;html=1;backgroundOutline=1;" parent="1" vertex="1">
          <mxGeometry x="280" y="100" width="120" height="60" as="geometry" />
        </mxCell>
        <mxCell id="KtCGmuJAADU12m0pKi4F-36" style="edgeStyle=orthogonalEdgeStyle;rounded=0;orthogonalLoop=1;jettySize=auto;html=1;exitX=1;exitY=0;exitDx=0;exitDy=0;entryX=0.25;entryY=1;entryDx=0;entryDy=0;" parent="1" source="KtCGmuJAADU12m0pKi4F-17" target="KtCGmuJAADU12m0pKi4F-32" edge="1">
          <mxGeometry relative="1" as="geometry">
            <Array as="points">
              <mxPoint x="80" y="420" />
              <mxPoint x="160" y="420" />
            </Array>
          </mxGeometry>
        </mxCell>
        <mxCell id="KtCGmuJAADU12m0pKi4F-37" value="Yes" style="edgeLabel;html=1;align=center;verticalAlign=middle;resizable=0;points=[];" parent="KtCGmuJAADU12m0pKi4F-36" vertex="1" connectable="0">
          <mxGeometry x="-0.7578" y="-1" relative="1" as="geometry">
            <mxPoint y="-1" as="offset" />
          </mxGeometry>
        </mxCell>
        <mxCell id="KtCGmuJAADU12m0pKi4F-39" style="edgeStyle=orthogonalEdgeStyle;rounded=0;orthogonalLoop=1;jettySize=auto;html=1;exitX=0.5;exitY=0;exitDx=0;exitDy=0;entryX=0;entryY=0.5;entryDx=0;entryDy=0;" parent="1" source="KtCGmuJAADU12m0pKi4F-17" target="KtCGmuJAADU12m0pKi4F-1" edge="1">
          <mxGeometry relative="1" as="geometry" />
        </mxCell>
        <mxCell id="KtCGmuJAADU12m0pKi4F-40" value="No" style="edgeLabel;html=1;align=center;verticalAlign=middle;resizable=0;points=[];" parent="KtCGmuJAADU12m0pKi4F-39" vertex="1" connectable="0">
          <mxGeometry x="-0.9511" y="6" relative="1" as="geometry">
            <mxPoint as="offset" />
          </mxGeometry>
        </mxCell>
        <mxCell id="KtCGmuJAADU12m0pKi4F-17" value="Board still moving?" style="rhombus;whiteSpace=wrap;html=1;" parent="1" vertex="1">
          <mxGeometry x="20" y="450" width="80" height="80" as="geometry" />
        </mxCell>
        <mxCell id="KtCGmuJAADU12m0pKi4F-22" style="edgeStyle=orthogonalEdgeStyle;rounded=0;orthogonalLoop=1;jettySize=auto;html=1;" parent="1" source="KtCGmuJAADU12m0pKi4F-19" target="-olaCRIU6BgIfdw6zFpe-14" edge="1">
          <mxGeometry relative="1" as="geometry" />
        </mxCell>
        <mxCell id="KtCGmuJAADU12m0pKi4F-27" value="Yes" style="edgeLabel;html=1;align=center;verticalAlign=middle;resizable=0;points=[];" parent="KtCGmuJAADU12m0pKi4F-22" vertex="1" connectable="0">
          <mxGeometry x="-0.6618" y="6" relative="1" as="geometry">
            <mxPoint x="1" as="offset" />
          </mxGeometry>
        </mxCell>
        <mxCell id="KtCGmuJAADU12m0pKi4F-31" style="edgeStyle=orthogonalEdgeStyle;rounded=0;orthogonalLoop=1;jettySize=auto;html=1;" parent="1" source="KtCGmuJAADU12m0pKi4F-19" target="KtCGmuJAADU12m0pKi4F-17" edge="1">
          <mxGeometry relative="1" as="geometry" />
        </mxCell>
        <mxCell id="KtCGmuJAADU12m0pKi4F-41" value="No" style="edgeLabel;html=1;align=center;verticalAlign=middle;resizable=0;points=[];" parent="KtCGmuJAADU12m0pKi4F-31" vertex="1" connectable="0">
          <mxGeometry x="-0.4824" y="1" relative="1" as="geometry">
            <mxPoint as="offset" />
          </mxGeometry>
        </mxCell>
        <mxCell id="KtCGmuJAADU12m0pKi4F-19" value="Won game?" style="rhombus;whiteSpace=wrap;html=1;" parent="1" vertex="1">
          <mxGeometry x="150" y="450" width="80" height="80" as="geometry" />
        </mxCell>
        <mxCell id="KtCGmuJAADU12m0pKi4F-33" style="edgeStyle=orthogonalEdgeStyle;rounded=0;orthogonalLoop=1;jettySize=auto;html=1;entryX=0;entryY=0;entryDx=0;entryDy=0;" parent="1" source="KtCGmuJAADU12m0pKi4F-32" target="-olaCRIU6BgIfdw6zFpe-19" edge="1">
          <mxGeometry relative="1" as="geometry" />
        </mxCell>
        <mxCell id="KtCGmuJAADU12m0pKi4F-32" value="Wait a bit, to allow lost indicator to show up, or for board to stop moving." style="rounded=0;whiteSpace=wrap;html=1;" parent="1" vertex="1">
          <mxGeometry x="130" y="320" width="120" height="60" as="geometry" />
        </mxCell>
        <mxCell id="unlMFjUQDw8UDPETVi_Y-1" style="edgeStyle=orthogonalEdgeStyle;rounded=0;orthogonalLoop=1;jettySize=auto;html=1;" edge="1" parent="1" source="hLiuoRWRBSkTzvbkZye7-2" target="KtCGmuJAADU12m0pKi4F-1">
          <mxGeometry relative="1" as="geometry" />
        </mxCell>
        <mxCell id="hLiuoRWRBSkTzvbkZye7-2" value="Setup level" style="shape=process;whiteSpace=wrap;html=1;backgroundOutline=1;" vertex="1" parent="1">
          <mxGeometry x="280" y="10" width="120" height="60" as="geometry" />
        </mxCell>
      </root>
    </mxGraphModel>
  </diagram>
  <diagram id="6bhvPyoJnpr279hGDhiV" name="Setup level">
    <mxGraphModel dx="1235" dy="731" grid="1" gridSize="10" guides="1" tooltips="1" connect="1" arrows="1" fold="1" page="1" pageScale="1" pageWidth="827" pageHeight="1169" math="0" shadow="0">
      <root>
        <mxCell id="0" />
        <mxCell id="1" parent="0" />
        <mxCell id="-M03-bsVtbdcOuucVtNu-9" style="edgeStyle=orthogonalEdgeStyle;rounded=0;orthogonalLoop=1;jettySize=auto;html=1;" edge="1" parent="1" source="A9TqjjCY8IyA9eIIzQCe-2" target="-M03-bsVtbdcOuucVtNu-8">
          <mxGeometry relative="1" as="geometry" />
        </mxCell>
        <mxCell id="A9TqjjCY8IyA9eIIzQCe-2" value="Get goal requirements from file, put them in a data structure that includes the order they appear in the file" style="rounded=0;whiteSpace=wrap;html=1;" vertex="1" parent="1">
          <mxGeometry x="200" y="350" width="160" height="80" as="geometry" />
        </mxCell>
        <mxCell id="-M03-bsVtbdcOuucVtNu-6" style="edgeStyle=orthogonalEdgeStyle;rounded=0;orthogonalLoop=1;jettySize=auto;html=1;" edge="1" parent="1" source="A9TqjjCY8IyA9eIIzQCe-3" target="-M03-bsVtbdcOuucVtNu-5">
          <mxGeometry relative="1" as="geometry" />
        </mxCell>
        <mxCell id="A9TqjjCY8IyA9eIIzQCe-3" value="Minimise candy crush window to reduce screenshot size" style="whiteSpace=wrap;html=1;rounded=0;" vertex="1" parent="1">
          <mxGeometry x="40" y="140" width="120" height="60" as="geometry" />
        </mxCell>
        <mxCell id="-M03-bsVtbdcOuucVtNu-3" style="edgeStyle=orthogonalEdgeStyle;rounded=0;orthogonalLoop=1;jettySize=auto;html=1;" edge="1" parent="1" source="-M03-bsVtbdcOuucVtNu-1" target="-M03-bsVtbdcOuucVtNu-2">
          <mxGeometry relative="1" as="geometry" />
        </mxCell>
        <mxCell id="-M03-bsVtbdcOuucVtNu-11" style="edgeStyle=orthogonalEdgeStyle;rounded=0;orthogonalLoop=1;jettySize=auto;html=1;dashed=1;dashPattern=12 12;" edge="1" parent="1" source="-M03-bsVtbdcOuucVtNu-1" target="A9TqjjCY8IyA9eIIzQCe-2">
          <mxGeometry relative="1" as="geometry" />
        </mxCell>
        <mxCell id="-M03-bsVtbdcOuucVtNu-1" value="Get information needed to see goal" style="rounded=0;whiteSpace=wrap;html=1;" vertex="1" parent="1">
          <mxGeometry x="40" y="360" width="120" height="60" as="geometry" />
        </mxCell>
        <mxCell id="-M03-bsVtbdcOuucVtNu-14" value="" style="edgeStyle=orthogonalEdgeStyle;rounded=0;orthogonalLoop=1;jettySize=auto;html=1;dashed=1;dashPattern=12 12;" edge="1" parent="1" source="-M03-bsVtbdcOuucVtNu-2" target="-M03-bsVtbdcOuucVtNu-13">
          <mxGeometry relative="1" as="geometry" />
        </mxCell>
        <mxCell id="-M03-bsVtbdcOuucVtNu-32" style="edgeStyle=orthogonalEdgeStyle;rounded=0;orthogonalLoop=1;jettySize=auto;html=1;" edge="1" parent="1" source="-M03-bsVtbdcOuucVtNu-2" target="-M03-bsVtbdcOuucVtNu-29">
          <mxGeometry relative="1" as="geometry" />
        </mxCell>
        <mxCell id="-M03-bsVtbdcOuucVtNu-2" value="Get board structure" style="rounded=0;whiteSpace=wrap;html=1;" vertex="1" parent="1">
          <mxGeometry x="40" y="535" width="120" height="60" as="geometry" />
        </mxCell>
        <mxCell id="-M03-bsVtbdcOuucVtNu-7" style="edgeStyle=orthogonalEdgeStyle;rounded=0;orthogonalLoop=1;jettySize=auto;html=1;" edge="1" parent="1" source="-M03-bsVtbdcOuucVtNu-5" target="-M03-bsVtbdcOuucVtNu-1">
          <mxGeometry relative="1" as="geometry" />
        </mxCell>
        <mxCell id="-M03-bsVtbdcOuucVtNu-5" value="Determine level file" style="rounded=0;whiteSpace=wrap;html=1;" vertex="1" parent="1">
          <mxGeometry x="40" y="230" width="120" height="60" as="geometry" />
        </mxCell>
        <mxCell id="-M03-bsVtbdcOuucVtNu-8" value="Ask user to specify the goal area" style="rounded=0;whiteSpace=wrap;html=1;" vertex="1" parent="1">
          <mxGeometry x="220" y="450" width="120" height="60" as="geometry" />
        </mxCell>
        <mxCell id="-M03-bsVtbdcOuucVtNu-25" style="edgeStyle=orthogonalEdgeStyle;rounded=0;orthogonalLoop=1;jettySize=auto;html=1;" edge="1" parent="1" source="-M03-bsVtbdcOuucVtNu-13" target="-M03-bsVtbdcOuucVtNu-20">
          <mxGeometry relative="1" as="geometry" />
        </mxCell>
        <mxCell id="-M03-bsVtbdcOuucVtNu-13" value="Get level structure from file" style="whiteSpace=wrap;html=1;rounded=0;" vertex="1" parent="1">
          <mxGeometry x="204" y="535" width="120" height="60" as="geometry" />
        </mxCell>
        <mxCell id="-M03-bsVtbdcOuucVtNu-27" style="edgeStyle=orthogonalEdgeStyle;rounded=0;orthogonalLoop=1;jettySize=auto;html=1;" edge="1" parent="1" source="-M03-bsVtbdcOuucVtNu-17" target="-M03-bsVtbdcOuucVtNu-23">
          <mxGeometry relative="1" as="geometry" />
        </mxCell>
        <mxCell id="-M03-bsVtbdcOuucVtNu-17" value="Ask user to specify grid area" style="whiteSpace=wrap;html=1;rounded=0;" vertex="1" parent="1">
          <mxGeometry x="204" y="695" width="120" height="60" as="geometry" />
        </mxCell>
        <mxCell id="-M03-bsVtbdcOuucVtNu-26" style="edgeStyle=orthogonalEdgeStyle;rounded=0;orthogonalLoop=1;jettySize=auto;html=1;" edge="1" parent="1" source="-M03-bsVtbdcOuucVtNu-20" target="-M03-bsVtbdcOuucVtNu-17">
          <mxGeometry relative="1" as="geometry" />
        </mxCell>
        <mxCell id="-M03-bsVtbdcOuucVtNu-20" value="Parse grid structure from file into data structure (numpy array or something)" style="whiteSpace=wrap;html=1;rounded=0;" vertex="1" parent="1">
          <mxGeometry x="204" y="615" width="120" height="60" as="geometry" />
        </mxCell>
        <mxCell id="-M03-bsVtbdcOuucVtNu-23" value="Correlate each square in the grid to coordinates in the area the user defined" style="whiteSpace=wrap;html=1;rounded=0;" vertex="1" parent="1">
          <mxGeometry x="204" y="775" width="120" height="60" as="geometry" />
        </mxCell>
        <mxCell id="-M03-bsVtbdcOuucVtNu-29" value="Data structure containing information for goal and level" style="ellipse;whiteSpace=wrap;html=1;aspect=fixed;" vertex="1" parent="1">
          <mxGeometry x="52.5" y="637" width="95" height="95" as="geometry" />
        </mxCell>
        <mxCell id="-M03-bsVtbdcOuucVtNu-31" style="edgeStyle=orthogonalEdgeStyle;rounded=0;orthogonalLoop=1;jettySize=auto;html=1;" edge="1" parent="1" source="-M03-bsVtbdcOuucVtNu-30" target="A9TqjjCY8IyA9eIIzQCe-3">
          <mxGeometry relative="1" as="geometry" />
        </mxCell>
        <mxCell id="-M03-bsVtbdcOuucVtNu-30" value="Level number" style="ellipse;whiteSpace=wrap;html=1;aspect=fixed;" vertex="1" parent="1">
          <mxGeometry x="60" y="20" width="80" height="80" as="geometry" />
        </mxCell>
      </root>
    </mxGraphModel>
  </diagram>
  <diagram id="Ksi3b5LRAWzD-Gqzzr2U" name="Get state">
    <mxGraphModel dx="1050" dy="621" grid="1" gridSize="10" guides="1" tooltips="1" connect="1" arrows="1" fold="1" page="1" pageScale="1" pageWidth="827" pageHeight="1169" math="0" shadow="0">
      <root>
        <mxCell id="0" />
        <mxCell id="1" parent="0" />
        <mxCell id="lAv2vxWNmBqw9xyIhCvk-6" style="edgeStyle=orthogonalEdgeStyle;rounded=0;orthogonalLoop=1;jettySize=auto;html=1;" parent="1" source="7lZGZIu1ljYGXfAIqcsD-2" target="lAv2vxWNmBqw9xyIhCvk-4" edge="1">
          <mxGeometry relative="1" as="geometry" />
        </mxCell>
        <mxCell id="Cw7dxYjnYhD2kSA6omYj-12" style="edgeStyle=orthogonalEdgeStyle;rounded=0;orthogonalLoop=1;jettySize=auto;html=1;dashed=1;dashPattern=12 12;" edge="1" parent="1" source="7lZGZIu1ljYGXfAIqcsD-2" target="Cw7dxYjnYhD2kSA6omYj-11">
          <mxGeometry relative="1" as="geometry" />
        </mxCell>
        <mxCell id="7lZGZIu1ljYGXfAIqcsD-2" value="Run check on each square to determine what is at that square" style="rounded=0;whiteSpace=wrap;html=1;" parent="1" vertex="1">
          <mxGeometry x="162.5" y="130" width="145" height="70" as="geometry" />
        </mxCell>
        <mxCell id="lAv2vxWNmBqw9xyIhCvk-24" style="edgeStyle=orthogonalEdgeStyle;rounded=0;orthogonalLoop=1;jettySize=auto;html=1;" parent="1" source="0ixL_elILYGjEPcNNFZa-2" target="lAv2vxWNmBqw9xyIhCvk-23" edge="1">
          <mxGeometry relative="1" as="geometry" />
        </mxCell>
        <mxCell id="0ixL_elILYGjEPcNNFZa-2" value="Update internal grid data structure" style="rounded=0;whiteSpace=wrap;html=1;" parent="1" vertex="1">
          <mxGeometry x="175" y="430" width="120" height="60" as="geometry" />
        </mxCell>
        <mxCell id="lAv2vxWNmBqw9xyIhCvk-10" style="edgeStyle=orthogonalEdgeStyle;rounded=0;orthogonalLoop=1;jettySize=auto;html=1;" parent="1" source="lAv2vxWNmBqw9xyIhCvk-4" target="lAv2vxWNmBqw9xyIhCvk-9" edge="1">
          <mxGeometry relative="1" as="geometry" />
        </mxCell>
        <mxCell id="lAv2vxWNmBqw9xyIhCvk-11" value="Yes" style="edgeLabel;html=1;align=center;verticalAlign=middle;resizable=0;points=[];" parent="lAv2vxWNmBqw9xyIhCvk-10" vertex="1" connectable="0">
          <mxGeometry x="-0.616" y="3" relative="1" as="geometry">
            <mxPoint as="offset" />
          </mxGeometry>
        </mxCell>
        <mxCell id="lAv2vxWNmBqw9xyIhCvk-12" style="edgeStyle=orthogonalEdgeStyle;rounded=0;orthogonalLoop=1;jettySize=auto;html=1;" parent="1" source="lAv2vxWNmBqw9xyIhCvk-4" target="0ixL_elILYGjEPcNNFZa-2" edge="1">
          <mxGeometry relative="1" as="geometry" />
        </mxCell>
        <mxCell id="lAv2vxWNmBqw9xyIhCvk-14" value="No" style="edgeLabel;html=1;align=center;verticalAlign=middle;resizable=0;points=[];" parent="lAv2vxWNmBqw9xyIhCvk-12" vertex="1" connectable="0">
          <mxGeometry x="-0.5385" y="2" relative="1" as="geometry">
            <mxPoint as="offset" />
          </mxGeometry>
        </mxCell>
        <mxCell id="lAv2vxWNmBqw9xyIhCvk-4" value="Failed to recognise?" style="rhombus;whiteSpace=wrap;html=1;" parent="1" vertex="1">
          <mxGeometry x="195" y="310" width="80" height="80" as="geometry" />
        </mxCell>
        <mxCell id="lAv2vxWNmBqw9xyIhCvk-7" value="&lt;span style=&quot;color: rgb(0, 0, 0); font-family: Helvetica; font-size: 12px; font-style: normal; font-variant-ligatures: normal; font-variant-caps: normal; font-weight: 400; letter-spacing: normal; orphans: 2; text-align: center; text-indent: 0px; text-transform: none; widows: 2; word-spacing: 0px; -webkit-text-stroke-width: 0px; background-color: rgb(251, 251, 251); text-decoration-thickness: initial; text-decoration-style: initial; text-decoration-color: initial; float: none; display: inline !important;&quot;&gt;If it wasn&#39;t able to recognise&lt;br&gt;what&#39;s in one of the squares, it is possible that the board is still moving.&lt;/span&gt;" style="text;whiteSpace=wrap;html=1;" parent="1" vertex="1">
          <mxGeometry x="20" y="220" width="210" height="60" as="geometry" />
        </mxCell>
        <mxCell id="lAv2vxWNmBqw9xyIhCvk-9" value="Skip making a move" style="rounded=0;whiteSpace=wrap;html=1;" parent="1" vertex="1">
          <mxGeometry x="30" y="320" width="120" height="60" as="geometry" />
        </mxCell>
        <mxCell id="lAv2vxWNmBqw9xyIhCvk-19" style="edgeStyle=orthogonalEdgeStyle;rounded=0;orthogonalLoop=1;jettySize=auto;html=1;" parent="1" source="lAv2vxWNmBqw9xyIhCvk-18" edge="1">
          <mxGeometry relative="1" as="geometry">
            <mxPoint x="195" y="40" as="targetPoint" />
          </mxGeometry>
        </mxCell>
        <mxCell id="Cw7dxYjnYhD2kSA6omYj-6" style="edgeStyle=orthogonalEdgeStyle;rounded=0;orthogonalLoop=1;jettySize=auto;html=1;" edge="1" parent="1" source="lAv2vxWNmBqw9xyIhCvk-20" target="tMh82LDaMKl9OyK7CAFe-3">
          <mxGeometry relative="1" as="geometry" />
        </mxCell>
        <mxCell id="lAv2vxWNmBqw9xyIhCvk-20" value="Look at area indicating remaining quantites needed" style="rounded=0;whiteSpace=wrap;html=1;" parent="1" vertex="1">
          <mxGeometry x="340" y="530" width="120" height="60" as="geometry" />
        </mxCell>
        <mxCell id="lAv2vxWNmBqw9xyIhCvk-25" style="edgeStyle=orthogonalEdgeStyle;rounded=0;orthogonalLoop=1;jettySize=auto;html=1;dashed=1;dashPattern=12 12;" parent="1" source="lAv2vxWNmBqw9xyIhCvk-23" target="lAv2vxWNmBqw9xyIhCvk-20" edge="1">
          <mxGeometry relative="1" as="geometry" />
        </mxCell>
        <mxCell id="qIWEZRVLldCGLhkhDjT4-9" value="" style="edgeStyle=orthogonalEdgeStyle;rounded=0;orthogonalLoop=1;jettySize=auto;html=1;" edge="1" parent="1" source="lAv2vxWNmBqw9xyIhCvk-23" target="qIWEZRVLldCGLhkhDjT4-8">
          <mxGeometry relative="1" as="geometry" />
        </mxCell>
        <mxCell id="lAv2vxWNmBqw9xyIhCvk-23" value="Determine remaining goals" style="rounded=0;whiteSpace=wrap;html=1;" parent="1" vertex="1">
          <mxGeometry x="175" y="530" width="120" height="60" as="geometry" />
        </mxCell>
        <mxCell id="tMh82LDaMKl9OyK7CAFe-3" value="Use OCR" style="whiteSpace=wrap;html=1;rounded=0;" parent="1" vertex="1">
          <mxGeometry x="340" y="620" width="120" height="60" as="geometry" />
        </mxCell>
        <mxCell id="Cw7dxYjnYhD2kSA6omYj-15" style="edgeStyle=orthogonalEdgeStyle;rounded=0;orthogonalLoop=1;jettySize=auto;html=1;" edge="1" parent="1" source="sj7uvpNeGggy-zOkBTpp-2" target="Cw7dxYjnYhD2kSA6omYj-14">
          <mxGeometry relative="1" as="geometry" />
        </mxCell>
        <mxCell id="sj7uvpNeGggy-zOkBTpp-2" value="Get coordinates to check, from internal grid data structure" style="whiteSpace=wrap;html=1;rounded=0;" parent="1" vertex="1">
          <mxGeometry x="360" y="220" width="120" height="60" as="geometry" />
        </mxCell>
        <mxCell id="Cw7dxYjnYhD2kSA6omYj-3" value="Compare with existing database correlating each candy with their DCD, using this to classify what is on each region" style="rounded=0;whiteSpace=wrap;html=1;" vertex="1" parent="1">
          <mxGeometry x="330" y="380" width="180" height="60" as="geometry" />
        </mxCell>
        <mxCell id="Cw7dxYjnYhD2kSA6omYj-4" value="DCD = Dominant Colour Distribution" style="text;html=1;strokeColor=none;fillColor=none;align=center;verticalAlign=middle;whiteSpace=wrap;rounded=0;fontStyle=1" vertex="1" parent="1">
          <mxGeometry x="520" y="315" width="156" height="30" as="geometry" />
        </mxCell>
        <mxCell id="Cw7dxYjnYhD2kSA6omYj-13" style="edgeStyle=orthogonalEdgeStyle;rounded=0;orthogonalLoop=1;jettySize=auto;html=1;" edge="1" parent="1" source="Cw7dxYjnYhD2kSA6omYj-11" target="sj7uvpNeGggy-zOkBTpp-2">
          <mxGeometry relative="1" as="geometry" />
        </mxCell>
        <mxCell id="Cw7dxYjnYhD2kSA6omYj-11" value="Take screenshot of grid" style="rounded=0;whiteSpace=wrap;html=1;" vertex="1" parent="1">
          <mxGeometry x="360" y="135" width="120" height="60" as="geometry" />
        </mxCell>
        <mxCell id="qIWEZRVLldCGLhkhDjT4-1" style="edgeStyle=orthogonalEdgeStyle;rounded=0;orthogonalLoop=1;jettySize=auto;html=1;" edge="1" parent="1" source="Cw7dxYjnYhD2kSA6omYj-14" target="Cw7dxYjnYhD2kSA6omYj-3">
          <mxGeometry relative="1" as="geometry" />
        </mxCell>
        <mxCell id="Cw7dxYjnYhD2kSA6omYj-14" value="Get the contents of each square on the grid in the screenshot, and get the DCD of each region" style="rounded=0;whiteSpace=wrap;html=1;" vertex="1" parent="1">
          <mxGeometry x="330" y="300" width="180" height="60" as="geometry" />
        </mxCell>
        <mxCell id="qIWEZRVLldCGLhkhDjT4-6" style="edgeStyle=orthogonalEdgeStyle;rounded=0;orthogonalLoop=1;jettySize=auto;html=1;" edge="1" parent="1" source="qIWEZRVLldCGLhkhDjT4-5" target="7lZGZIu1ljYGXfAIqcsD-2">
          <mxGeometry relative="1" as="geometry" />
        </mxCell>
        <mxCell id="qIWEZRVLldCGLhkhDjT4-5" value="Data structure for grid and goals" style="ellipse;whiteSpace=wrap;html=1;aspect=fixed;" vertex="1" parent="1">
          <mxGeometry x="195" y="10" width="80" height="80" as="geometry" />
        </mxCell>
        <mxCell id="qIWEZRVLldCGLhkhDjT4-8" value="Update data structure for goals" style="whiteSpace=wrap;html=1;rounded=0;" vertex="1" parent="1">
          <mxGeometry x="175" y="630" width="120" height="60" as="geometry" />
        </mxCell>
      </root>
    </mxGraphModel>
  </diagram>
  <diagram id="6A6i-ViHl-KH3dejNXdF" name="Determine move">
    <mxGraphModel dx="1050" dy="621" grid="1" gridSize="10" guides="1" tooltips="1" connect="1" arrows="1" fold="1" page="1" pageScale="1" pageWidth="827" pageHeight="1169" math="0" shadow="0">
      <root>
        <mxCell id="0" />
        <mxCell id="1" parent="0" />
        <mxCell id="GuPzwi5yGuXI18dfwwu0-1" style="edgeStyle=orthogonalEdgeStyle;rounded=0;orthogonalLoop=1;jettySize=auto;html=1;dashed=1;dashPattern=12 12;" parent="1" source="GuPzwi5yGuXI18dfwwu0-3" target="GuPzwi5yGuXI18dfwwu0-6" edge="1">
          <mxGeometry relative="1" as="geometry" />
        </mxCell>
        <mxCell id="GuPzwi5yGuXI18dfwwu0-2" style="edgeStyle=orthogonalEdgeStyle;rounded=0;orthogonalLoop=1;jettySize=auto;html=1;" parent="1" source="GuPzwi5yGuXI18dfwwu0-3" target="GuPzwi5yGuXI18dfwwu0-10" edge="1">
          <mxGeometry relative="1" as="geometry" />
        </mxCell>
        <mxCell id="GuPzwi5yGuXI18dfwwu0-3" value="Get possible moves from state" style="rounded=0;whiteSpace=wrap;html=1;" parent="1" vertex="1">
          <mxGeometry x="40" y="170" width="120" height="60" as="geometry" />
        </mxCell>
        <mxCell id="GuPzwi5yGuXI18dfwwu0-4" style="edgeStyle=orthogonalEdgeStyle;rounded=0;orthogonalLoop=1;jettySize=auto;html=1;dashed=1;dashPattern=12 12;" parent="1" source="GuPzwi5yGuXI18dfwwu0-6" target="GuPzwi5yGuXI18dfwwu0-12" edge="1">
          <mxGeometry relative="1" as="geometry" />
        </mxCell>
        <mxCell id="GuPzwi5yGuXI18dfwwu0-5" style="edgeStyle=orthogonalEdgeStyle;rounded=0;orthogonalLoop=1;jettySize=auto;html=1;entryX=0;entryY=0.5;entryDx=0;entryDy=0;dashed=1;dashPattern=12 12;" parent="1" source="GuPzwi5yGuXI18dfwwu0-6" target="GuPzwi5yGuXI18dfwwu0-15" edge="1">
          <mxGeometry relative="1" as="geometry" />
        </mxCell>
        <mxCell id="GuPzwi5yGuXI18dfwwu0-6" value="Getting possible ways of moving candies" style="rounded=0;whiteSpace=wrap;html=1;" parent="1" vertex="1">
          <mxGeometry x="200" y="170" width="120" height="60" as="geometry" />
        </mxCell>
        <mxCell id="GuPzwi5yGuXI18dfwwu0-7" style="edgeStyle=orthogonalEdgeStyle;rounded=0;orthogonalLoop=1;jettySize=auto;html=1;dashed=1;dashPattern=12 12;" parent="1" source="GuPzwi5yGuXI18dfwwu0-10" target="GuPzwi5yGuXI18dfwwu0-14" edge="1">
          <mxGeometry relative="1" as="geometry" />
        </mxCell>
        <mxCell id="GuPzwi5yGuXI18dfwwu0-8" style="edgeStyle=orthogonalEdgeStyle;rounded=0;orthogonalLoop=1;jettySize=auto;html=1;entryX=0;entryY=0.5;entryDx=0;entryDy=0;dashed=1;dashPattern=12 12;" parent="1" source="GuPzwi5yGuXI18dfwwu0-10" target="GuPzwi5yGuXI18dfwwu0-16" edge="1">
          <mxGeometry relative="1" as="geometry" />
        </mxCell>
        <mxCell id="GuPzwi5yGuXI18dfwwu0-9" style="edgeStyle=orthogonalEdgeStyle;rounded=0;orthogonalLoop=1;jettySize=auto;html=1;" parent="1" source="GuPzwi5yGuXI18dfwwu0-10" target="GuPzwi5yGuXI18dfwwu0-22" edge="1">
          <mxGeometry relative="1" as="geometry" />
        </mxCell>
        <mxCell id="GuPzwi5yGuXI18dfwwu0-10" value="Interpreting possible moves" style="rounded=0;whiteSpace=wrap;html=1;" parent="1" vertex="1">
          <mxGeometry x="40" y="335" width="120" height="60" as="geometry" />
        </mxCell>
        <mxCell id="GuPzwi5yGuXI18dfwwu0-11" style="edgeStyle=orthogonalEdgeStyle;rounded=0;orthogonalLoop=1;jettySize=auto;html=1;dashed=1;dashPattern=12 12;" parent="1" source="GuPzwi5yGuXI18dfwwu0-12" target="GuPzwi5yGuXI18dfwwu0-13" edge="1">
          <mxGeometry relative="1" as="geometry" />
        </mxCell>
        <mxCell id="GuPzwi5yGuXI18dfwwu0-12" value="Look for possible rows of 3 (even if it is part of a row of 5). Ignore equivelant moves." style="rounded=0;whiteSpace=wrap;html=1;" parent="1" vertex="1">
          <mxGeometry x="360" y="150" width="120" height="80" as="geometry" />
        </mxCell>
        <mxCell id="GuPzwi5yGuXI18dfwwu0-13" value="&lt;div&gt;_x (invert along x and y)&lt;/div&gt;&lt;div&gt;x_&lt;/div&gt;&lt;div&gt;x_&lt;/div&gt;&lt;div&gt;&lt;br&gt;&lt;/div&gt;&lt;div&gt;x (invert along x)&lt;/div&gt;&lt;div&gt;_&lt;/div&gt;&lt;div&gt;x&lt;/div&gt;&lt;div&gt;x&lt;/div&gt;&lt;div&gt;&lt;br&gt;&lt;/div&gt;&lt;div&gt;x_ (invert along y)&lt;/div&gt;&lt;div&gt;_x&lt;/div&gt;&lt;div&gt;x_&lt;/div&gt;&lt;div&gt;&lt;br&gt;&lt;/div&gt;&lt;div&gt;TODO CONSIDER IMMOVEABLE STUFF&lt;/div&gt;" style="text;html=1;align=left;verticalAlign=middle;resizable=0;points=[];autosize=1;strokeColor=none;fillColor=none;spacingLeft=7;spacing=2;" parent="1" vertex="1">
          <mxGeometry x="530" y="25" width="250" height="220" as="geometry" />
        </mxCell>
        <mxCell id="GuPzwi5yGuXI18dfwwu0-14" value="Check for speical candy creation. For each move, go through each possible special candy pattern. The order of patterns considered should mirror the game&#39;s priorities (e.g., colour bomb made instead of striped candy)." style="rounded=0;whiteSpace=wrap;html=1;" parent="1" vertex="1">
          <mxGeometry x="220" y="310" width="200" height="110" as="geometry" />
        </mxCell>
        <mxCell id="GuPzwi5yGuXI18dfwwu0-15" value="Look for special candies beside each other." style="rounded=0;whiteSpace=wrap;html=1;" parent="1" vertex="1">
          <mxGeometry x="360" y="240" width="120" height="50" as="geometry" />
        </mxCell>
        <mxCell id="GuPzwi5yGuXI18dfwwu0-16" value="Check for special candy triggers." style="rounded=0;whiteSpace=wrap;html=1;" parent="1" vertex="1">
          <mxGeometry x="220" y="430" width="120" height="60" as="geometry" />
        </mxCell>
        <mxCell id="GuPzwi5yGuXI18dfwwu0-17" style="edgeStyle=orthogonalEdgeStyle;rounded=0;orthogonalLoop=1;jettySize=auto;html=1;entryX=0;entryY=0.5;entryDx=0;entryDy=0;dashed=1;dashPattern=12 12;" parent="1" source="GuPzwi5yGuXI18dfwwu0-22" target="GuPzwi5yGuXI18dfwwu0-23" edge="1">
          <mxGeometry relative="1" as="geometry" />
        </mxCell>
        <mxCell id="GuPzwi5yGuXI18dfwwu0-18" style="edgeStyle=orthogonalEdgeStyle;rounded=0;orthogonalLoop=1;jettySize=auto;html=1;entryX=0;entryY=0.5;entryDx=0;entryDy=0;dashed=1;dashPattern=12 12;" parent="1" source="GuPzwi5yGuXI18dfwwu0-22" target="GuPzwi5yGuXI18dfwwu0-27" edge="1">
          <mxGeometry relative="1" as="geometry" />
        </mxCell>
        <mxCell id="GuPzwi5yGuXI18dfwwu0-19" style="edgeStyle=orthogonalEdgeStyle;rounded=0;orthogonalLoop=1;jettySize=auto;html=1;entryX=0;entryY=0.5;entryDx=0;entryDy=0;dashed=1;dashPattern=12 12;" parent="1" source="GuPzwi5yGuXI18dfwwu0-22" target="GuPzwi5yGuXI18dfwwu0-28" edge="1">
          <mxGeometry relative="1" as="geometry" />
        </mxCell>
        <mxCell id="GuPzwi5yGuXI18dfwwu0-20" style="edgeStyle=orthogonalEdgeStyle;rounded=0;orthogonalLoop=1;jettySize=auto;html=1;entryX=0;entryY=0.5;entryDx=0;entryDy=0;dashed=1;dashPattern=12 12;" parent="1" source="GuPzwi5yGuXI18dfwwu0-22" target="GuPzwi5yGuXI18dfwwu0-29" edge="1">
          <mxGeometry relative="1" as="geometry" />
        </mxCell>
        <mxCell id="GuPzwi5yGuXI18dfwwu0-21" style="edgeStyle=orthogonalEdgeStyle;rounded=0;orthogonalLoop=1;jettySize=auto;html=1;" parent="1" source="GuPzwi5yGuXI18dfwwu0-22" target="GuPzwi5yGuXI18dfwwu0-33" edge="1">
          <mxGeometry relative="1" as="geometry" />
        </mxCell>
        <mxCell id="GuPzwi5yGuXI18dfwwu0-22" value="Evaluate score of each move" style="rounded=0;whiteSpace=wrap;html=1;" parent="1" vertex="1">
          <mxGeometry x="40" y="510" width="120" height="60" as="geometry" />
        </mxCell>
        <mxCell id="GuPzwi5yGuXI18dfwwu0-23" value="Get score of simulating special candies being triggered" style="rounded=0;whiteSpace=wrap;html=1;" parent="1" vertex="1">
          <mxGeometry x="200" y="580" width="120" height="60" as="geometry" />
        </mxCell>
        <mxCell id="GuPzwi5yGuXI18dfwwu0-24" value="S:&lt;br&gt;Score of generated special candies" style="rounded=0;whiteSpace=wrap;html=1;" parent="1" vertex="1">
          <mxGeometry x="370" y="565" width="120" height="60" as="geometry" />
        </mxCell>
        <mxCell id="GuPzwi5yGuXI18dfwwu0-25" value="TODO: Consider case of&lt;br&gt;2 special candies being generated in one move&lt;br&gt;(maybe perform special candy creation check &lt;br&gt;on both positions of swapped candy)" style="text;html=1;align=center;verticalAlign=middle;resizable=0;points=[];autosize=1;strokeColor=none;fillColor=none;" parent="1" vertex="1">
          <mxGeometry x="437" y="330" width="270" height="70" as="geometry" />
        </mxCell>
        <mxCell id="GuPzwi5yGuXI18dfwwu0-26" value="G:&lt;br&gt;Score of goal advancement" style="rounded=0;whiteSpace=wrap;html=1;" parent="1" vertex="1">
          <mxGeometry x="370" y="632.5" width="120" height="60" as="geometry" />
        </mxCell>
        <mxCell id="GuPzwi5yGuXI18dfwwu0-27" value="Simulate game - gravity, then the resulting chain of definite moves" style="rounded=0;whiteSpace=wrap;html=1;" parent="1" vertex="1">
          <mxGeometry x="200" y="650" width="120" height="60" as="geometry" />
        </mxCell>
        <mxCell id="GuPzwi5yGuXI18dfwwu0-28" value="Get score of immediate results of move" style="rounded=0;whiteSpace=wrap;html=1;" parent="1" vertex="1">
          <mxGeometry x="200" y="510" width="120" height="60" as="geometry" />
        </mxCell>
        <mxCell id="GuPzwi5yGuXI18dfwwu0-29" value="Evaluate probability of further effects" style="rounded=0;whiteSpace=wrap;html=1;" parent="1" vertex="1">
          <mxGeometry x="200" y="720" width="120" height="60" as="geometry" />
        </mxCell>
        <mxCell id="GuPzwi5yGuXI18dfwwu0-30" value="Score sources to be &lt;br&gt;considered by mostly each &lt;br&gt;of these steps:" style="text;html=1;align=center;verticalAlign=middle;resizable=0;points=[];autosize=1;strokeColor=none;fillColor=none;" parent="1" vertex="1">
          <mxGeometry x="345" y="505" width="170" height="60" as="geometry" />
        </mxCell>
        <mxCell id="GuPzwi5yGuXI18dfwwu0-31" value="C:&lt;br&gt;Score of general&lt;br&gt;clearing" style="rounded=0;whiteSpace=wrap;html=1;" parent="1" vertex="1">
          <mxGeometry x="370" y="700" width="120" height="60" as="geometry" />
        </mxCell>
        <mxCell id="ZeLAYayze5AwTkHSqRJ9-4" style="edgeStyle=orthogonalEdgeStyle;rounded=0;orthogonalLoop=1;jettySize=auto;html=1;" parent="1" source="GuPzwi5yGuXI18dfwwu0-33" target="ZeLAYayze5AwTkHSqRJ9-3" edge="1">
          <mxGeometry relative="1" as="geometry" />
        </mxCell>
        <mxCell id="GuPzwi5yGuXI18dfwwu0-33" value="Pick best move" style="rounded=0;whiteSpace=wrap;html=1;" parent="1" vertex="1">
          <mxGeometry x="40" y="620" width="120" height="60" as="geometry" />
        </mxCell>
        <mxCell id="GuPzwi5yGuXI18dfwwu0-37" style="edgeStyle=orthogonalEdgeStyle;rounded=0;orthogonalLoop=1;jettySize=auto;html=1;" parent="1" source="GuPzwi5yGuXI18dfwwu0-35" target="GuPzwi5yGuXI18dfwwu0-3" edge="1">
          <mxGeometry relative="1" as="geometry" />
        </mxCell>
        <mxCell id="GuPzwi5yGuXI18dfwwu0-35" value="Goal&lt;br&gt;Moves left?&lt;br&gt;Grid state" style="ellipse;whiteSpace=wrap;html=1;aspect=fixed;" parent="1" vertex="1">
          <mxGeometry x="60" y="60" width="80" height="80" as="geometry" />
        </mxCell>
        <mxCell id="ZeLAYayze5AwTkHSqRJ9-3" value="Return move to make" style="ellipse;whiteSpace=wrap;html=1;" parent="1" vertex="1">
          <mxGeometry x="60" y="710" width="80" height="80" as="geometry" />
        </mxCell>
        <mxCell id="2Cez2cAhW8VkwFL9zf_6-1" value="&lt;a href=&quot;https://www.lifewire.com/best-candy-crush-cheats-4171581&quot;&gt;The 15 Best Candy Crush Cheats of 2024 (lifewire.com)&lt;/a&gt;" style="text;html=1;align=center;verticalAlign=middle;resizable=0;points=[];autosize=1;strokeColor=none;fillColor=none;" vertex="1" parent="1">
          <mxGeometry x="460" y="860" width="320" height="30" as="geometry" />
        </mxCell>
        <mxCell id="yhmI58h4brHSOXUDLJV3-1" value="To read:" style="text;html=1;align=center;verticalAlign=middle;resizable=0;points=[];autosize=1;strokeColor=none;fillColor=none;" vertex="1" parent="1">
          <mxGeometry x="490" y="830" width="70" height="30" as="geometry" />
        </mxCell>
      </root>
    </mxGraphModel>
  </diagram>
</mxfile>
